<?xml version="1.0" encoding="utf-8"?>
<!-- Generator: Adobe Illustrator 16.0.0, SVG Export Plug-In . SVG Version: 6.00 Build 0)  -->
<!DOCTYPE svg PUBLIC "-//W3C//DTD SVG 1.1//EN" "http://www.w3.org/Graphics/SVG/1.1/DTD/svg11.dtd">
<svg version="1.1" xmlns="http://www.w3.org/2000/svg" xmlns:xlink="http://www.w3.org/1999/xlink" x="0px" y="0px"
	 width="124.56px" height="144px" viewBox="0 0 124.56 144" enable-background="new 0 0 124.56 144" xml:space="preserve">
<g id="Layer_3">
	<radialGradient id="SVGID_1_" cx="62.2798" cy="72" r="67.3156" gradientUnits="userSpaceOnUse">
		<stop  offset="0" style="stop-color:#FFFFFF"/>
		<stop  offset="1" style="stop-color:#00A99D"/>
	</radialGradient>
	<polygon fill="url(#SVGID_1_)" points="124.56,108 62.28,144 0,108 0,36 62.28,0 124.56,36 	"/>
</g>
<g id="Layer_2">
	<g>
		<g>
			<polygon fill="#504D4D" points="38.526,104.156 40.781,103.063 27.25,96.5 13.719,103.063 15.974,104.156 27.25,98.688 			"/>
			<polygon fill="#1A1A1A" points="38.526,104.156 27.25,98.688 15.974,104.156 27.25,109.625 			"/>
		</g>
		<polygon fill="#CCCCCC" points="27.25,34 13.719,40.563 27.25,47.125 40.781,40.563 		"/>
		<g>
			<polygon fill="#999999" points="13.719,40.563 13.719,49.771 27.25,56.333 27.25,47.125 			"/>
			<polygon fill="#999999" points="13.719,51.953 13.719,61.162 27.25,67.724 27.25,58.516 			"/>
			<polygon fill="#999999" points="13.719,63.343 13.719,72.552 27.25,79.115 27.25,69.906 			"/>
			<polygon fill="#999999" points="13.719,74.734 13.719,83.943 27.25,90.506 27.25,81.297 			"/>
			<polygon fill="#999999" points="13.719,86.125 13.719,95.334 27.25,101.896 27.25,92.688 			"/>
			<polygon fill="#FFFFFF" points="40.781,40.563 27.25,47.125 27.25,56.333 40.781,49.771 			"/>
			<polygon fill="#FFFFFF" points="40.781,51.953 27.25,58.516 27.25,67.724 40.781,61.162 			"/>
			<polygon fill="#FFFFFF" points="40.781,63.343 27.25,69.906 27.25,79.115 40.781,72.552 			"/>
			<polygon fill="#FFFFFF" points="40.781,74.734 27.25,81.297 27.25,90.506 40.781,83.943 			"/>
			<polygon fill="#FFFFFF" points="40.781,86.125 27.25,92.688 27.25,101.896 40.781,95.334 			"/>
		</g>
	</g>
	<g>
		<g>
			<polygon fill="#504D4D" points="108.169,104.25 110.424,103.156 96.893,96.594 83.361,103.156 85.617,104.25 96.893,98.781 			
				"/>
			<polygon fill="#1A1A1A" points="108.169,104.25 96.893,98.781 85.617,104.25 96.893,109.719 			"/>
		</g>
		<polygon fill="#CCCCCC" points="96.893,34.094 83.361,40.656 96.893,47.219 110.424,40.656 		"/>
		<g>
			<polygon fill="#999999" points="83.361,40.656 83.361,49.865 96.893,56.427 96.893,47.219 			"/>
			<polygon fill="#999999" points="83.361,52.047 83.361,61.255 96.893,67.818 96.893,58.609 			"/>
			<polygon fill="#999999" points="83.361,63.437 83.361,72.646 96.893,79.209 96.893,70 			"/>
			<polygon fill="#999999" points="83.361,74.828 83.361,84.037 96.893,90.6 96.893,81.391 			"/>
			<polygon fill="#999999" points="83.361,86.219 83.361,95.428 96.893,101.99 96.893,92.781 			"/>
			<polygon fill="#FFFFFF" points="110.424,40.656 96.893,47.219 96.893,56.427 110.424,49.865 			"/>
			<polygon fill="#FFFFFF" points="110.424,52.047 96.893,58.609 96.893,67.818 110.424,61.255 			"/>
			<polygon fill="#FFFFFF" points="110.424,63.437 96.893,70 96.893,79.209 110.424,72.646 			"/>
			<polygon fill="#FFFFFF" points="110.424,74.828 96.893,81.391 96.893,90.6 110.424,84.037 			"/>
			<polygon fill="#FFFFFF" points="110.424,86.219 96.893,92.781 96.893,101.99 110.424,95.428 			"/>
		</g>
	</g>
	<path fill="#FFFFFF" d="M48.625,40.25v0.219c0-0.074,0.018-0.146,0.023-0.219H48.625z"/>
	<path fill="#FFFFFF" d="M75.911,40.25c0.006,0.073,0.023,0.145,0.023,0.219V40.25H75.911z"/>
	<g>
		<path fill="#CCCCCC" d="M75.703,40.25c-0.242-3.522-6.244-6.344-13.632-6.344s-13.39,2.821-13.632,6.344
			c-0.005,0.073-0.023,0.145-0.023,0.219c0,3.625,6.113,6.563,13.655,6.563s13.655-2.938,13.655-6.563
			C75.727,40.395,75.709,40.323,75.703,40.25z"/>
		<g>
			<path fill="#504D4D" d="M62.071,99.141c6.581,0,12.052,2.241,13.341,5.22c0.201-0.448,0.314-0.913,0.314-1.392
				c0-0.074-0.018-0.146-0.023-0.219c-0.242-3.522-6.244-6.344-13.632-6.344s-13.39,2.821-13.632,6.344
				c-0.005,0.073-0.023,0.145-0.023,0.219c0,0.478,0.112,0.943,0.314,1.392C50.021,101.382,55.49,99.141,62.071,99.141z"/>
			<path fill="#1A1A1A" d="M62.071,109.531c6.548,0,12.011-2.215,13.341-5.171c-1.289-2.979-6.76-5.22-13.341-5.22
				s-12.051,2.241-13.341,5.22C50.06,107.316,55.524,109.531,62.071,109.531z"/>
		</g>
		<g>
			<path fill="#FFFFFF" d="M75.727,49.677v-9.208c0,3.589-5.996,6.5-13.436,6.557v9.208C69.73,56.177,75.727,53.266,75.727,49.677z"
				/>
			<path fill="#FFFFFF" d="M75.727,61.068v-9.208c0,3.589-5.996,6.5-13.436,6.557v9.208C69.73,67.568,75.727,64.657,75.727,61.068z"
				/>
			<path fill="#FFFFFF" d="M75.727,72.459V63.25c0,3.589-5.996,6.5-13.436,6.557v9.208C69.73,78.959,75.727,76.048,75.727,72.459z"
				/>
			<path fill="#FFFFFF" d="M75.727,83.849v-9.208c0,3.588-5.996,6.5-13.436,6.557v9.209C69.73,90.349,75.727,87.438,75.727,83.849z"
				/>
			<path fill="#FFFFFF" d="M75.727,95.24v-9.208c0,3.588-5.996,6.5-13.436,6.558v9.207C69.73,101.74,75.727,98.829,75.727,95.24z"/>
			<path fill="#999999" d="M48.416,40.469v9.208c0,3.625,6.113,6.563,13.655,6.563c0.074,0,0.146-0.005,0.22-0.005v-9.208
				c-0.074,0-0.146,0.005-0.22,0.005C54.529,47.031,48.416,44.093,48.416,40.469z"/>
			<path fill="#999999" d="M48.416,51.859v9.208c0,3.625,6.113,6.563,13.655,6.563c0.074,0,0.146-0.005,0.22-0.005v-9.208
				c-0.074,0-0.146,0.005-0.22,0.005C54.529,58.422,48.416,55.484,48.416,51.859z"/>
			<path fill="#999999" d="M48.416,63.25v9.208c0,3.625,6.113,6.563,13.655,6.563c0.074,0,0.146-0.005,0.22-0.006v-9.208
				c-0.074,0-0.146,0.005-0.22,0.005C54.529,69.813,48.416,66.875,48.416,63.25z"/>
			<path fill="#999999" d="M48.416,74.641v9.208c0,3.625,6.113,6.563,13.655,6.563c0.074,0,0.146-0.005,0.22-0.005v-9.209
				c-0.074,0.001-0.146,0.006-0.22,0.006C54.529,81.203,48.416,78.265,48.416,74.641z"/>
			<path fill="#999999" d="M48.416,86.032v9.208c0,3.625,6.113,6.563,13.655,6.563c0.074,0,0.146-0.005,0.22-0.006V92.59
				c-0.074,0-0.146,0.005-0.22,0.005C54.529,92.595,48.416,89.656,48.416,86.032z"/>
		</g>
	</g>
	<g>
	</g>
	<g>
	</g>
	<g>
	</g>
	<g>
	</g>
	<g>
	</g>
	<g>
	</g>
	<g>
	</g>
	<g>
	</g>
	<g>
	</g>
	<g>
	</g>
	<g>
	</g>
	<g>
	</g>
	<g>
	</g>
	<g>
	</g>
	<g>
	</g>
</g>
</svg>
